<?xml version="1.0" encoding="utf-8"?>
<!-- Generator: Adobe Illustrator 21.0.2, SVG Export Plug-In . SVG Version: 6.00 Build 0)  -->
<svg version="1.1" preserveAspectRatio="xMinYMid" xmlns="http://www.w3.org/2000/svg" xmlns:xlink="http://www.w3.org/1999/xlink" x="0px" y="0px"
	 viewBox="0 0 1680 375" width="1680" height="375" style="enable-background:new 0 0 1680 375;" xml:space="preserve">
<style type="text/css">
	.st0{fill:#0072C4;}
	.st1{opacity:0.2;fill:#034488;}
</style>
<g id="Layer_1">
	<rect class="st0" width="1680" height="454"/>
	<polygon class="st1" points="1144.5,1073.3 1017.5,1153.6 1144.5,1233.9 1186,1207.6 1100.1,1153.2 1144.8,1125.2 1230.6,1179.6
		1271.4,1153.6 	"/>
	<polygon class="st1" points="1353.3,1101.5 1144.5,969.4 853.2,1153.6 1062.5,1285.9 1111.5,1254.8 949.8,1152.4 1145.4,1029.7
		1306.1,1131.4 	"/>
	<polygon class="st1" points="690.8,1360.2 817.8,1440.5 859.3,1414.2 773.5,1359.9 818.1,1331.9 903.9,1386.2 944.8,1360.2
		817.8,1280 	"/>
	<polygon class="st1" points="526.6,1360.2 735.8,1492.5 784.8,1461.4 623.1,1359 818.8,1236.4 979.4,1338.1 1026.6,1308.2
		817.8,1176.1 	"/>
	<polygon class="st1" points="1302.4,868.3 1261.5,894.3 1388.5,974.6 1515.5,894.3 1388.5,814.1 1347,840.3 1432.8,894.7
		1388.2,922.7 	"/>
	<polygon class="st1" points="1583.2,895.6 1387.5,1018.2 1226.9,916.5 1179.7,946.4 1388.5,1078.5 1679.8,894.3 1470.5,762.1
		1421.5,793.1 	"/>
	<polygon class="st1" points="1680,637.4 1680,629 1673.3,633.2 	"/>
	<polygon class="st1" points="1587.9,687.2 1680,745.4 1680,693.6 1628.7,661.2 	"/>
	<polygon class="st1" points="1506,739.3 1680,849.3 1680,789.6 1553.2,709.3 	"/>
	<polygon class="st1" points="41.6,1668.6 59.5,1680 142.6,1680 83.1,1642.3 	"/>
	<polygon class="st1" points="116.1,1621.4 208.5,1680 306.9,1680 165.1,1590.4 	"/>
	<polygon class="st1" points="367.7,1461.6 453.6,1515.9 409,1543.9 323.1,1489.6 282.3,1515.6 409.3,1595.9 536.3,1515.6
		409.3,1435.3 	"/>
	<polygon class="st1" points="491.3,1383.3 442.2,1414.4 603.9,1516.8 408.3,1639.5 247.6,1537.7 200.4,1567.7 378.1,1680
		440.4,1680 700.5,1515.6 	"/>
	<polygon class="st1" points="986,1025 1026.8,999 899.8,918.7 772.8,999 899.8,1079.3 941.3,1053 855.5,998.6 900.1,970.6 	"/>
	<polygon class="st1" points="1108.7,946.9 899.8,814.8 608.6,999 817.8,1131.3 866.8,1100.2 705.1,997.8 900.8,875.1 1061.4,976.8
			"/>
	<polygon class="st1" points="1680,436.2 1680,319.1 1587.4,377.6 	"/>
	<polygon class="st1" points="660.6,1232.4 701.4,1206.4 574.4,1126.1 447.4,1206.4 574.4,1286.6 615.9,1260.4 530.1,1206
		574.7,1178 	"/>
	<polygon class="st1" points="379.7,1205.1 575.4,1082.5 736,1184.2 783.3,1154.3 574.4,1022.2 283.2,1206.4 492.4,1338.6
		541.4,1307.6 	"/>
	<polygon class="st1" points="1058.3,714 1017.5,740 1144.5,820.2 1271.5,740 1144.5,659.7 1103,686 1188.8,740.3 1144.2,768.3 	"/>
	<polygon class="st1" points="1177.5,638.8 1339.2,741.2 1143.5,863.8 982.9,762.1 935.6,792 1144.5,924.1 1435.7,740 1226.5,607.7
			"/>
	<polygon class="st1" points="1429.4,478.9 1515.2,533.3 1470.6,561.3 1384.7,506.9 1343.9,532.9 1470.9,613.2 1597.9,532.9
		1470.9,452.6 	"/>
	<polygon class="st1" points="1503.9,431.7 1665.6,534.1 1469.9,656.8 1309.3,555.1 1262,585 1470.9,717 1680,584.8 1680,481
		1552.9,400.6 	"/>
	<polygon class="st1" points="0,1485.4 0,1547.6 34,1569.1 0,1590.5 0,1650.5 130.6,1567.9 	"/>
	<polygon class="st1" points="124.8,1307.2 210.6,1361.6 166,1389.5 80.1,1335.2 39.3,1361.2 166.3,1441.5 293.3,1361.2
		166.3,1280.9 	"/>
	<polygon class="st1" points="457.5,1361.2 248.3,1228.9 199.3,1260 361,1362.4 165.3,1485.1 4.6,1383.4 0,1386.3 0,1440.2
		166.3,1545.3 	"/>
	<polygon class="st1" points="570.2,153.1 611.7,126.8 525.9,72.4 570.5,44.4 656.4,98.8 697.2,72.8 582.1,0 558.3,0 443.2,72.8
		"/>
	<polygon class="st1" points="779.1,20.7 746.3,0 651.9,0 731.8,50.6 	"/>
	<polygon class="st1" points="488.2,205 537.2,174 375.5,71.6 489.7,0 394.1,0 279,72.8 	"/>
	<polygon class="st1" points="285.1,333.4 199.2,279.1 243.9,251.1 329.7,305.4 370.5,279.4 243.5,199.2 116.6,279.4 243.5,359.7
		"/>
	<polygon class="st1" points="210.6,380.6 48.9,278.2 244.5,155.6 405.2,257.3 452.4,227.4 243.5,95.3 0,249.3 0,309.6 161.6,411.7
			"/>
	<polygon class="st1" points="0,355 0,417.2 29.7,436 0,454.6 0,514.6 126.2,434.8 	"/>
	<polygon class="st1" points="292.6,19.4 262,0 163.8,0 243.6,50.5 	"/>
	<polygon class="st1" points="41.7,179.6 0,153.1 0,205.7 0.2,205.8 	"/>
	<polygon class="st1" points="86.3,151.6 127.2,125.6 0.2,45.3 0,45.4 0,97.5 0.5,97.2 	"/>
	<polygon class="st1" points="161.8,103.4 209,73.5 92.8,0 0,0 0,2.4 1.2,1.7 	"/>
	<polygon class="st1" points="655.3,769 649,716.7 734.8,662.3 728.8,614.2 601.9,694.8 620.3,843.9 747.1,763.3 741.1,714.6 	"/>
	<polygon class="st1" points="550.2,992.4 759.2,859.7 752,802.1 590.3,904.6 562.9,675.3 723.5,573.4 716.6,518 508,650.5 	"/>
	<polygon class="st1" points="865.7,688 992.5,607.5 986.5,558.7 900.7,613.1 894.4,560.8 980.2,506.4 974.1,458.3 847.3,538.9 	"/>
	<polygon class="st1" points="1004.5,703.8 997.4,646.2 835.7,748.7 808.3,519.4 968.9,417.6 962,362.1 753.4,494.6 795.6,836.5
		"/>
	<polygon class="st1" points="7.9,1179.7 0,1184.7 0,1237.3 14,1228.5 	"/>
	<polygon class="st1" points="0,1114.3 0,1128.4 1.7,1127.4 	"/>
	<polygon class="st1" points="18.8,1267.2 0,1279.1 0,1341.3 26,1324.8 	"/>
	<polygon class="st1" points="373.1,948.5 287.3,1003 293.4,1051 420.2,970.4 401.7,821.3 275,901.9 281,950.7 366.8,896.2 	"/>
	<polygon class="st1" points="305.7,1147.3 514.1,1014.7 471.8,672.7 262.9,805.6 270.1,863.2 431.7,760.6 459.2,989.9
		298.7,1091.8 	"/>
	<polygon class="st1" points="129.3,1103.5 43.6,1157.9 49.7,1206 176.4,1125.3 158,976.2 31.2,1056.9 37.3,1105.6 123,1051.2 	"/>
	<polygon class="st1" points="19.1,960.5 26.3,1018.1 187.9,915.5 215.5,1144.8 54.9,1246.7 61.9,1302.2 270.4,1169.6 228,827.7
		"/>
	<polygon class="st1" points="1110.1,532.3 1236.9,451.7 1230.9,403 1145.1,457.4 1138.8,405.1 1224.6,350.7 1218.6,302.6
		1091.7,383.2 	"/>
	<polygon class="st1" points="1249,548.1 1241.8,490.5 1080.1,593 1052.7,363.7 1213.3,261.8 1206.4,206.4 997.8,338.9 1040,680.8
		"/>
	<polygon class="st1" points="1589.8,119.5 1596.1,171.8 1510.3,226.3 1516.4,274.3 1643.2,193.7 1624.7,44.6 1497.9,125.2
		1504,174 	"/>
	<polygon class="st1" points="1493.1,86.5 1629.2,0 1531.3,0 1485.9,28.9 	"/>
	<polygon class="st1" points="1680,0 1656.6,0 1680,194.8 	"/>
	<polygon class="st1" points="1528.6,370.6 1680,274.3 1680,214.5 1521.7,315.1 	"/>
	<polygon class="st1" points="1380.9,199.5 1254.2,280.1 1260.3,328.9 1346,274.4 1352.3,326.7 1266.5,381.2 1272.7,429.2
		1399.4,348.6 	"/>
	<polygon class="st1" points="1410.9,138.8 1438.4,368.1 1277.9,470 1284.9,525.5 1493.3,392.9 1451,50.9 1242.1,183.8
		1249.3,241.4 	"/>
	<polygon class="st1" points="119.4,696.2 113.2,643.9 199,589.5 192.9,541.5 66.1,622 84.5,771.1 211.3,690.6 205.2,641.8 	"/>
	<polygon class="st1" points="223.3,786.9 216.1,729.3 54.5,831.8 27.1,602.5 187.6,500.7 180.7,445.2 0,560 0,803.3 14.3,919.6
		"/>
	<polygon class="st1" points="329.8,615.3 456.7,534.7 450.6,485.9 364.8,540.3 358.5,488 444.3,433.6 438.3,385.6 311.4,466.1 	"/>
	<polygon class="st1" points="468.7,631 461.5,573.4 299.8,675.9 272.4,446.6 433,344.8 426.1,289.3 217.5,421.8 259.7,763.8 	"/>
	<polygon class="st1" points="574.3,459.5 701.1,379 695,330.2 609.2,384.6 603,332.3 688.8,277.9 682.7,229.9 555.9,310.4 	"/>
	<polygon class="st1" points="713.1,475.3 705.9,417.7 544.3,520.2 516.9,290.9 677.4,189.1 670.5,133.6 462,266.1 504.1,608 	"/>
	<polygon class="st1" points="968.2,101.2 1053.9,46.8 1060.2,99 974.4,153.5 980.6,201.5 1107.3,120.9 1092.3,0 1044.5,0
		962.1,52.4 	"/>
	<polygon class="st1" points="978.8,0 955.5,0 957.2,13.7 	"/>
	<polygon class="st1" points="985.8,242.3 992.8,297.8 1201.2,165.2 1180.8,0 1129.5,0 1146.3,140.4 	"/>
	<polygon class="st1" points="1297.8,0 1219.2,0 1225.1,46.3 	"/>
	<polygon class="st1" points="1237.3,142.5 1445.8,9.9 1444.6,0 1367.4,0 1230.4,87.1 	"/>
	<polygon class="st1" points="810.2,201.7 816.4,254 730.7,308.4 736.8,356.5 863.6,275.8 845.1,126.7 718.3,207.4 724.4,256.1 	"/>
	<polygon class="st1" points="713.4,168.6 875,66 902.6,295.3 742.1,397.3 749,452.7 957.5,320.1 917.8,0 880.8,0 706.2,111 	"/>
	<polygon class="st1" points="1498.3,1680 1567.3,1680 1562.2,1639.5 	"/>
	<polygon class="st1" points="1556,1587.2 1549.9,1539.2 1423.1,1619.7 1430.5,1680 1474.8,1680 1470.2,1641.6 	"/>
	<polygon class="st1" points="1544.6,1498.4 1537.7,1442.9 1329.2,1575.4 1342.1,1680 1393.6,1680 1384.1,1600.2 	"/>
	<polygon class="st1" points="1680,1557.5 1680,1456.5 1668.4,1463.8 	"/>
	<polygon class="st1" points="1606.7,1680 1680,1680 1680,1659 1656.8,1673.6 1629.4,1444.3 1680,1412.3 1680,1352.5 1574.5,1419.5
			"/>
	<polygon class="st1" points="1163.5,1680 1303.1,1680 1292.9,1597.7 	"/>
	<polygon class="st1" points="1026.4,1566.7 940.5,1621.1 934.3,1568.8 1020.1,1514.4 1014,1466.4 887.2,1547 903.6,1680
		930.9,1680 1032.4,1615.5 	"/>
	<polygon class="st1" points="996.6,1680 1040.5,1680 1037.2,1654.3 	"/>
	<polygon class="st1" points="1008.8,1425.6 1001.9,1370.1 793.3,1502.6 815.2,1680 866.4,1680 848.2,1527.5 	"/>
	<polygon class="st1" points="1185.9,1465.3 1179.7,1413 1265.5,1358.6 1259.4,1310.5 1132.6,1391.1 1151,1540.2 1277.8,1459.6
		1271.7,1410.9 	"/>
	<polygon class="st1" points="1282.6,1498.4 1121,1600.9 1093.6,1371.6 1254.1,1269.7 1247.2,1214.3 1038.7,1346.7 1079.8,1680
		1094.5,1680 1289.8,1556 	"/>
	<polygon class="st1" points="676.7,1680 687.8,1680 687,1673.5 	"/>
	<polygon class="st1" points="548.1,1657.8 550.9,1680 611,1680 716.9,1612.8 725,1680 776.2,1680 757,1524.9 	"/>
	<polygon class="st1" points="1503.8,1154.8 1377,1235.4 1395.4,1384.5 1522.2,1303.9 1516.2,1255.1 1430.3,1309.5 1424.1,1257.2
		1509.9,1202.8 	"/>
	<polygon class="st1" points="1365.4,1445.2 1338,1215.9 1498.6,1114 1491.7,1058.5 1283.1,1191 1325.3,1533 1534.2,1400.2
		1527,1342.7 	"/>
	<polygon class="st1" points="1539.4,1132.3 1545.5,1181.1 1631.3,1126.6 1637.6,1178.9 1551.8,1233.4 1557.9,1281.4 1680,1203.7
		1680,1163 1666.2,1051.7 	"/>
	<polygon class="st1" points="1570.1,1377.7 1680,1307.8 1680,1248 1563.2,1322.2 	"/>
	<polygon class="st1" points="1534.6,1093.6 1680,1001.2 1680,938.9 1527.4,1036 	"/>
</g>
<g id="Layer_2">
</g>
</svg>
