<svg xmlns="http://www.w3.org/2000/svg" width="1920" height="635"><defs><linearGradient id="b" x1=".5" y1="1" x2=".5" gradientUnits="objectBoundingBox"><stop offset="0" stop-color="#d72344"/><stop offset=".729" stop-color="#d72344"/><stop offset="1" stop-color="#8b2346"/></linearGradient><linearGradient id="c" x1=".5" x2=".5" y2=".936" gradientUnits="objectBoundingBox"><stop offset="0" stop-color="#1d486f"/><stop offset=".808" stop-color="#1d486f"/><stop offset="1" stop-color="#32355b"/></linearGradient><clipPath id="a"><path data-name="Rectangle 533" transform="translate(8365 1884)" fill="#fff" d="M0 0h1920v635H0z"/></clipPath></defs><g data-name="Group 2631"><path data-name="Rectangle 532" fill="#1d1f48" d="M0 0h1920v635H0z"/><g data-name="Mask Group 65" transform="translate(-8365 -1884)" clip-path="url(#a)"><g data-name="Group 1837"><path data-name="Path 2751" d="M822.112 760.666s-40.861-130.233-447.245-287.318C295.516 440.28-6.372 334.75.1 183.388a114.056 114.056 0 011.655-15.061C41.349-55.488 844.971-167.36 843.95 567.509c.687 68.169-5.72 135.617-21.838 193.157z" transform="translate(9641 1658.718)" fill="url(#b)"/><path data-name="Path 2750" d="M38.9 0s72.63 231.474 794.927 510.676c141.038 58.774 677.607 246.342 666.1 515.37a202.791 202.791 0 01-2.943 26.77C1426.616 1450.62-1.725 1649.46.088 343.314-1.132 222.152 10.256 102.271 38.9 0z" transform="translate(8108.89 1311.953)" fill="url(#c)"/></g></g></g></svg>