<svg xmlns="http://www.w3.org/2000/svg" width="240.094" height="207.34" viewBox="0 0 240.094 207.34"><g id="Line" transform="translate(-2 -5.002)"><path id="Pfad_458" data-name="Pfad 458" d="M37.457,44.827a5.457,5.457,0,0,0,5.457-5.457V28.457a5.457,5.457,0,1,0-10.913,0V39.37A5.457,5.457,0,0,0,37.457,44.827Z" transform="translate(133.7 80.209)" fill="#fbc848"></path><path id="Pfad_459" data-name="Pfad 459" d="M37.457,50.827a5.457,5.457,0,0,0,5.457-5.457V34.457a5.457,5.457,0,1,0-10.913,0V45.37A5.457,5.457,0,0,0,37.457,50.827Z" transform="translate(133.7 106.949)" fill="#fbc848"></path><path id="Pfad_460" data-name="Pfad 460" d="M37.457,56.827a5.457,5.457,0,0,0,5.457-5.457V40.457a5.457,5.457,0,1,0-10.913,0V51.37A5.457,5.457,0,0,0,37.457,56.827Z" transform="translate(133.7 133.689)" fill="#fbc848"></path><path id="Pfad_461" data-name="Pfad 461" d="M236.637,81.382h-3.6L48.655,5.425a5.457,5.457,0,0,0-7.148,2.947l-14.515,35.3a5.129,5.129,0,0,0,0,4.2,5.457,5.457,0,0,0,2.947,2.947L40.2,54.972a16.37,16.37,0,0,1,8.894,21.39,16.752,16.752,0,0,1-3.438,5.02H7.457A5.457,5.457,0,0,0,2,86.839v38.2a5.457,5.457,0,0,0,5.457,5.457H18.37a16.37,16.37,0,1,1,0,32.74H7.457A5.457,5.457,0,0,0,2,168.689v38.2a5.457,5.457,0,0,0,5.457,5.457h229.18a5.457,5.457,0,0,0,5.457-5.457v-38.2a5.457,5.457,0,0,0-5.457-5.457H225.724a16.37,16.37,0,1,1,0-32.74h10.913a5.457,5.457,0,0,0,5.457-5.457v-38.2A5.457,5.457,0,0,0,236.637,81.382ZM44.18,44.877,39.16,42.8l10.368-25.21,154.86,63.789H58.586c0-.327.327-.6.437-.873A27.283,27.283,0,0,0,44.18,44.877Zm187,74.7h-5.457a27.283,27.283,0,1,0,0,54.567h5.457v27.283H12.913V174.146H18.37a27.283,27.283,0,1,0,0-54.567H12.913V92.3H231.18Z" transform="translate(0 0)" fill="#0f3558"></path><path id="Pfad_462" data-name="Pfad 462" d="M19.457,35.913h65.48a5.457,5.457,0,1,0,0-10.913H19.457a5.457,5.457,0,1,0,0,10.913Z" transform="translate(53.48 89.122)" fill="#fbc848"></path><path id="Pfad_463" data-name="Pfad 463" d="M19.457,45.913h65.48a5.457,5.457,0,1,0,0-10.913H19.457a5.457,5.457,0,0,0,0,10.913Z" transform="translate(53.48 133.689)" fill="#fbc848"></path><path id="Pfad_464" data-name="Pfad 464" d="M19.457,40.913h65.48a5.457,5.457,0,1,0,0-10.913H19.457a5.457,5.457,0,1,0,0,10.913Z" transform="translate(53.48 111.406)" fill="#fbc848"></path></g></svg>