<?xml version="1.0" standalone="no"?>
<!DOCTYPE svg PUBLIC "-//W3C//DTD SVG 20010904//EN"
 "http://www.w3.org/TR/2001/REC-SVG-20010904/DTD/svg10.dtd">
<svg version="1.0" xmlns="http://www.w3.org/2000/svg"
 width="1230.000000pt" height="1280.000000pt" viewBox="0 0 1230.000000 1280.000000"
 preserveAspectRatio="xMidYMid meet">
<metadata>
Created by potrace 1.15, written by Peter Selinger 2001-2017
</metadata>
<g transform="translate(0.000000,1280.000000) scale(0.100000,-0.100000)"
fill="#000000" stroke="none">
<path d="M3570 12786 c-59 -9 -93 -22 -160 -60 -252 -146 -403 -261 -638 -488
-273 -266 -371 -338 -647 -476 -242 -121 -345 -190 -1015 -683 -310 -229 -412
-298 -540 -369 -205 -113 -331 -209 -391 -297 -17 -24 -44 -81 -61 -126 -16
-45 -40 -99 -54 -119 -13 -21 -24 -50 -24 -66 0 -16 -8 -44 -18 -63 -25 -49
-22 -183 6 -274 27 -89 97 -183 190 -256 l69 -54 33 -135 c100 -407 224 -815
327 -1069 122 -307 260 -524 742 -1176 90 -121 230 -319 311 -440 82 -121 186
-265 231 -320 46 -55 243 -264 438 -465 646 -664 761 -773 1027 -972 177 -132
267 -218 499 -478 132 -147 254 -272 390 -395 505 -459 794 -676 1150 -863
263 -138 380 -213 557 -355 117 -93 319 -290 428 -417 109 -127 180 -199 214
-218 25 -14 67 -18 231 -21 110 -1 235 -6 278 -10 l79 -6 285 -473 286 -472
461 -294 c254 -161 590 -373 748 -471 284 -175 288 -178 299 -219 39 -147 151
-213 294 -171 136 39 368 181 517 314 60 54 106 103 105 112 -2 14 507 571
670 735 162 161 159 318 -10 443 -120 88 -796 721 -1072 1002 -193 197 -288
307 -515 599 -318 410 -427 537 -622 725 -150 146 -227 203 -530 393 -281 177
-354 230 -463 337 -129 126 -185 214 -295 460 -157 352 -233 468 -455 690
-277 277 -734 645 -1235 994 l-175 122 -539 602 c-296 331 -554 625 -572 652
-18 28 -45 85 -59 128 -26 78 -45 207 -30 207 4 0 67 -38 140 -85 195 -124
275 -169 630 -352 386 -200 492 -257 700 -381 376 -224 748 -373 1125 -451
203 -43 311 -53 635 -61 353 -8 384 -13 471 -73 29 -20 68 -63 99 -107 56 -83
94 -113 168 -135 92 -27 342 -13 440 24 57 22 113 -32 187 -179 92 -183 129
-317 200 -715 88 -499 134 -617 340 -870 104 -128 191 -292 320 -605 94 -228
155 -356 272 -570 52 -96 144 -270 204 -387 l109 -212 70 -13 c39 -7 129 -13
200 -12 117 0 137 2 203 27 40 16 77 25 82 22 6 -4 61 1 123 10 366 53 696
185 1032 413 128 86 168 121 201 178 52 88 40 189 -34 296 -43 61 -36 46 -159
333 -211 490 -383 948 -437 1166 -38 155 -53 252 -86 573 -49 471 -90 669
-185 891 -61 143 -73 166 -229 445 -72 129 -179 338 -239 464 -168 358 -248
479 -433 656 -282 271 -561 475 -834 611 -148 74 -255 111 -416 144 -71 14
-194 48 -274 75 -135 45 -220 81 -685 288 -99 44 -279 116 -400 160 -591 215
-944 354 -1249 488 -559 248 -671 324 -903 607 -197 240 -292 317 -593 477
-146 78 -344 200 -716 439 l-160 104 -47 92 c-62 122 -125 202 -235 303 -50
45 -101 102 -114 125 -37 66 -102 79 -268 53z"/>
</g>
</svg>
